<?xml version="1.0" encoding="UTF-8" standalone="no"?>
<!-- Created with Inkscape (http://www.inkscape.org/) -->

<svg
   width="512.0px"
   height="512.0px"
   viewBox="0 0 512.0 512.0"
   version="1.1"
   id="SVGRoot"
   sodipodi:docname="favicon.svg"
   inkscape:version="1.2.2 (b0a8486541, 2022-12-01)"
   xmlns:inkscape="http://www.inkscape.org/namespaces/inkscape"
   xmlns:sodipodi="http://sodipodi.sourceforge.net/DTD/sodipodi-0.dtd"
   xmlns="http://www.w3.org/2000/svg"
   xmlns:svg="http://www.w3.org/2000/svg">
  <sodipodi:namedview
     id="namedview137"
     pagecolor="#ffffff"
     bordercolor="#000000"
     borderopacity="0.25"
     inkscape:showpageshadow="2"
     inkscape:pageopacity="0.0"
     inkscape:pagecheckerboard="0"
     inkscape:deskcolor="#d1d1d1"
     inkscape:document-units="px"
     showgrid="false"
     inkscape:zoom="0.5946522"
     inkscape:cx="146.30401"
     inkscape:cy="354.82926"
     inkscape:window-width="1280"
     inkscape:window-height="1000"
     inkscape:window-x="2560"
     inkscape:window-y="0"
     inkscape:window-maximized="1"
     inkscape:current-layer="layer1">
    <inkscape:grid
       type="xygrid"
       id="grid260" />
  </sodipodi:namedview>
  <defs
     id="defs132">
    <rect
       x="56.371478"
       y="144.49893"
       width="412.43386"
       height="308.44297"
       id="rect8902" />
  </defs>
  <g
     inkscape:label="Layer 1"
     inkscape:groupmode="layer"
     id="layer1">
    <path
       id="path31780"
       style="fill:none;stroke:#f0f700;stroke-width:18.4;stroke-dasharray:none"
       d="m 208.56344,174.89282 c 0,-78.121504 48.72334,-141.451495 108.82662,-141.451495 60.10328,0 108.82662,63.329991 108.82662,141.451495 0,55.68453 -24.75512,103.85387 -60.87018,125.4452 l 4.92804,32.54931 c 0,0 84.302,-19.08295 87.96133,22.33612 3.65932,41.41908 32.96266,193.4464 32.96266,193.4464 l -329.5798,-6.85975 c 0,0 7.59824,-183.42841 40.55638,-184.9171 32.95815,-1.4887 76.33016,-12.8177 76.33016,-12.8177 l -1.52504,-37.93872 C 236.21485,284.20221 208.56344,233.74475 208.56344,174.89282 Z"
       sodipodi:nodetypes="sssccsccsccs" />
    <ellipse
       style="fill:none;fill-opacity:1;stroke:#f0f700;stroke-width:18.4;stroke-dasharray:none;stroke-opacity:1"
       id="path31778"
       cx="308.95139"
       cy="169.25993"
       ry="61.562401"
       rx="38.047657" />
    <path
       style="fill:none;fill-opacity:1;stroke:#f0f700;stroke-width:18.4;stroke-dasharray:none;stroke-opacity:1"
       d="m 271.40421,168.05786 -62.24177,5.8745"
       id="path31782" />
    <path
       style="fill:none;fill-opacity:1;stroke:#f0f700;stroke-width:18.4;stroke-dasharray:none;stroke-opacity:1"
       d="m 311.09308,108.91048 0.48077,-74.702796"
       id="path31784" />
    <path
       style="fill:none;fill-opacity:1;stroke:#f0f700;stroke-width:18.4;stroke-dasharray:none;stroke-opacity:1"
       d="m 351.58624,168.53483 81.28562,-6.00676"
       id="path31786" />
    <path
       id="path31791"
       style="fill:none;fill-opacity:1;stroke:#f0f700;stroke-width:18.4;stroke-dasharray:none;stroke-opacity:1"
       d="m 62.574326,378.14154 c 0,0 9.870282,-28.08114 9.151801,-42.0443 -0.718481,-13.96316 -30.815019,-7.22566 -42.586605,11.97076 -11.771587,19.19642 6.303333,70.30313 6.303333,70.30313 l 17.929992,22.65327 c 3.246301,36.1636 10.547707,112.53379 10.547707,112.53379 0,0 97.121746,38.59246 101.958966,8.96499 4.83723,-29.62747 -34.85411,-130.9629 -34.85411,-130.9629 33.16758,-80.21339 68.19281,-165.57906 -50.230415,-103.24885 -19.199034,23.01683 -28.034704,56.04261 -28.034704,56.04261"
       sodipodi:nodetypes="csscccsccc" />
    <path
       id="rect31845"
       style="fill:#eff700;fill-opacity:1;stroke:#f0f700;stroke-width:25.2422;stroke-dasharray:none;stroke-opacity:1"
       d="m 58.772865,158.19629 c -8.822238,0 -15.926409,7.1015 -15.926409,15.92374 v 200.25369 c 0,8.82224 7.104171,15.92642 15.926409,15.92642 H 162.22754 c 8.82224,0 15.92373,-7.10418 15.92373,-15.92642 V 174.12003 c 0,-8.82224 -7.10149,-15.92374 -15.92373,-15.92374 z m 17.868982,20.72524 h 74.125863 c 8.82224,0 15.92373,7.10149 15.92373,15.92373 v 79.03708 c 0,11.7414 -7.10149,21.19267 -15.92373,21.19267 H 76.641847 c -8.822238,0 -15.926409,-9.45127 -15.926409,-21.19267 v -79.03708 c 0,-8.82224 7.104171,-15.92373 15.926409,-15.92373 z"
       sodipodi:nodetypes="ssssssssssssssssss" />
  </g>
</svg>
