<?xml version="1.0" encoding="UTF-8" standalone="no"?>
<!-- Created with Inkscape (http://www.inkscape.org/) -->

<svg
   width="512.0px"
   height="512.0px"
   viewBox="0 0 512.0 512.0"
   version="1.1"
   id="SVGRoot"
   sodipodi:docname="unimplemented.svg"
   inkscape:version="1.2.2 (b0a8486541, 2022-12-01)"
   xmlns:inkscape="http://www.inkscape.org/namespaces/inkscape"
   xmlns:sodipodi="http://sodipodi.sourceforge.net/DTD/sodipodi-0.dtd"
   xmlns="http://www.w3.org/2000/svg"
   xmlns:svg="http://www.w3.org/2000/svg">
  <sodipodi:namedview
     id="namedview137"
     pagecolor="#ffffff"
     bordercolor="#000000"
     borderopacity="0.25"
     inkscape:showpageshadow="2"
     inkscape:pageopacity="0.0"
     inkscape:pagecheckerboard="0"
     inkscape:deskcolor="#d1d1d1"
     inkscape:document-units="px"
     showgrid="false"
     inkscape:zoom="1.1893044"
     inkscape:cx="259.81574"
     inkscape:cy="213.99063"
     inkscape:window-width="2560"
     inkscape:window-height="1383"
     inkscape:window-x="0"
     inkscape:window-y="0"
     inkscape:window-maximized="1"
     inkscape:current-layer="layer1">
    <inkscape:grid
       type="xygrid"
       id="grid260" />
  </sodipodi:namedview>
  <defs
     id="defs132" />
  <g
     inkscape:label="Layer 1"
     inkscape:groupmode="layer"
     id="layer1">
    <path
       style="fill:#899197;fill-opacity:1;stroke:none"
       d="m 133.63909,163.53954 c 0,0 -85.895281,16.71016 -78.863973,-52.87043 7.031308,-69.580588 30.214061,-48.834357 30.214061,-48.834357 0,0 4.353377,95.026607 47.597702,57.679417 43.24432,-37.347185 16.02258,-71.694511 6.32145,-84.518108 -9.70113,-12.823596 22.55049,-22.421881 31.8915,-11.196443 9.34102,11.225439 31.89865,100.617521 7.6236,115.908321 -24.27505,15.29081 253.23368,228.45062 253.23368,228.45062 0,0 40.40643,106.55971 -47.97264,57.39044 C 295.3054,376.37973 133.63909,163.53954 133.63909,163.53954 Z"
       id="path397" />
    <path
       style="fill:#a0a7ac;stroke:none;fill-opacity:1"
       d="m 123.38863,175.49629 c 0,0 -85.895282,16.71016 -78.863974,-52.87043 7.031308,-69.580588 30.214061,-48.834357 30.214061,-48.834357 0,0 4.353377,95.026607 47.597703,57.679417 43.24432,-37.347185 16.02258,-71.694511 6.32145,-84.518108 -9.70113,-12.823596 22.55049,-22.421881 31.8915,-11.196443 9.34102,11.225439 31.89865,100.617521 7.6236,115.908321 -24.27505,15.29081 253.23368,228.45062 253.23368,228.45062 0,0 40.40643,106.55971 -47.97264,57.39044 C 285.05494,388.33648 123.38863,175.49629 123.38863,175.49629 Z"
       id="path3766" />
    <path
       style="fill:#c1ac5f;fill-opacity:1;stroke:none"
       d="m 178.82993,269.39965 c 0,0 -35.03773,-24.78696 -44.60389,-9.34805 -9.56616,15.43892 -16.03772,17.5705 -16.03772,17.5705 0,0 -101.459011,141.46745 -101.459011,160.30083 0,18.83338 64.634672,73.98149 96.334041,58.92481 31.69936,-15.05669 111.97854,-130.24771 111.97854,-130.24771 0,0 -0.12389,-5.42079 7.60799,-8.78687 7.73188,-3.36608 19.41212,-64.14446 -1.19658,-72.39703 -20.60869,-8.25257 -52.62337,-16.01648 -52.62337,-16.01648 z"
       id="path4107" />
    <path
       style="fill:#899197;fill-opacity:1;stroke:none"
       d="m 209.09152,316.43992 c 44.3879,-46.55308 88.60012,-111.70152 133.1673,-139.27686 l 37.49196,-11.40793 32.99849,-68.072764 5.13354,-43.854003 -6.41275,-10.684473 -61.58775,20.576618 -51.36141,50.417022 1.4229,34.50267 -114.84969,152.48997 c 0,0 -10.90607,19.20853 23.99741,15.30975 z"
       id="path3656"
       sodipodi:nodetypes="ccccccccccc" />
    <path
       style="fill:#a0a7ac;fill-opacity:1;stroke:none"
       d="m 207.97736,317.35444 c 60.09295,-60.83567 59.21387,-111.79173 117.55277,-154.49792 l 37.49196,-11.40793 42.50922,-59.411477 12.47847,-43.470542 -23.26841,-19.729221 -61.58775,20.576618 -51.36141,50.417018 1.4229,34.502674 -114.84969,152.48997 c 0,0 4.70846,34.42959 39.61194,30.53081 z"
       id="path3654"
       sodipodi:nodetypes="ccccccccccc" />
    <path
       style="fill:#b49d46;fill-opacity:1;stroke:none"
       d="m 132.23893,266.59358 c 0,0 -3.10723,25.91067 4.55763,29.40869 7.66485,3.49803 81.54427,44.82509 96.45797,30.51593 14.91371,-14.30916 11.42713,38.87591 -7.89179,35.94538 -19.31891,-2.93053 -120.31738,-65.21911 -111.61704,-79.88273 8.70034,-14.66363 18.49323,-15.98727 18.49323,-15.98727 z"
       id="path5027" />
  </g>
</svg>
